<svg width="180" height="180" viewBox="0 0 180 180" fill="none" xmlns="http://www.w3.org/2000/svg">
  <rect width="180" height="180" rx="36" fill="#FF3C00"/>
  <defs>
    <mask id="hoodMask">
      <rect width="180" height="180" fill="white"/>
      <polygon points="50,67.5 85,75 82.5,87.5 55,85" fill="black"/>
      <polygon points="130,67.5 95,75 97.5,87.5 125,85" fill="black"/>
    </mask>
  </defs>
  <path
    mask="url(#hoodMask)"
    transform="translate(30, 15)"
    d="M60 10C35 10 17.5 27.5 15 45C12.5 60 14 72.5 17.5 82.5C22.5 95 32.5 104 45 107.5C50 109 55 110 60 110C65 110 70 109 75 107.5C87.5 104 97.5 95 102.5 82.5C106 72.5 107.5 60 105 45C102.5 27.5 85 10 60 10Z"
    fill="white"
  />
</svg>
